# xmcd
#
# Track frame offsets: 
#        150
#        16362
#        30300
#        46762
#        59225
#        69075
#        77525
#        94650
#        117587
#        141287
#        172087
#        184175
#        209787
#        224100
#        241512
#        260200
#        275062
#
# Disc length: 3852 seconds
#
# Revision: 3
# Processed by: cddbd v1.5.2PL0 Copyright (c) Steve Scherf et al.
# Submitted via: ExactAudioCopyFreeDBPlugin 1.0
#
DISCID=060f0a11
DTITLE=郷ひろみ　他 - 奥田民生　Oldies But Goldies Vol. II
DYEAR=1995
DGENRE=Compilation
TTITLE0=郷ひろみ and 樹木希林 - お化けのロック
TTITLE1=友川かずき - 生きてるって言ってみろ
TTITLE2=清水健太郎 - 帰らない
TTITLE3=生福 - 軍艦行進曲 ～ フュージョンバトルシップ
TTITLE4=仙波清彦とはにわオールスターズ - リボンの騎士
TTITLE5=所ジョージ - カッタマリブギ
TTITLE6=アース ウィンド and ファイアー - 宇宙のファンタジー
TTITLE7=サンタナ - 哀愁のヨーロッパ
TTITLE8=スライ and ザ ファミリー ストーン - ケセラセラ
TTITLE9=スティーヴィー レイ ヴォーン アンド ダブル トラブル - リトルウィング
TTITLE10=スライ and ザ ファミリー ストーン - 一緒にいたいなら
TTITLE11=ジェフ ベック - スキャッターブレイン
TTITLE12=チープ トリック - 甘い罠
TTITLE13=ネーナ - ロックバルーンは 99
TTITLE14=ボストン - パーティ
TTITLE15=杉良太郎 - 君は人のために死ねるか
TTITLE16=波の音 - サーフブレイク
EXTD=YEAR: 1995
EXTT0=
EXTT1=
EXTT2=
EXTT3=
EXTT4=
EXTT5=
EXTT6=
EXTT7=
EXTT8=
EXTT9=
EXTT10=
EXTT11=
EXTT12=
EXTT13=
EXTT14=
EXTT15=
EXTT16=
PLAYORDER=
